<?xml version="1.0" encoding="UTF-8" standalone="no"?><svg id="svg" xmlns="http://www.w3.org/2000/svg" xmlns:xlink="http://www.w3.org/1999/xlink" width="400" height="87.34835355285962" viewBox="0, 0, 400,87.34835355285962" version="1.1"><g id="svgg"><path id="path0" d="M3.466 45.407 L 3.466 84.575 27.730 84.575 L 51.993 84.575 51.993 78.336 L 51.993 72.097 35.009 72.097 L 18.024 72.097 18.024 39.168 L 18.024 6.239 10.745 6.239 L 3.466 6.239 3.466 45.407 M206.423 10.342 C 201.073 15.122,204.627 23.570,211.988 23.570 C 215.926 23.570,218.142 22.208,219.504 18.948 C 222.776 11.116,212.860 4.591,206.423 10.342 M382.230 9.547 C 376.239 14.401,379.284 23.518,386.908 23.555 C 392.582 23.582,396.193 18.786,394.458 13.529 C 392.869 8.715,386.014 6.483,382.230 9.547 M391.508 12.170 C 393.270 14.172,393.531 17.126,392.116 19.061 C 390.874 20.759,389.944 18.425,390.626 15.321 C 391.204 12.690,389.561 11.095,386.259 11.081 C 384.314 11.073,383.956 10.904,384.749 10.369 C 386.350 9.289,389.776 10.202,391.508 12.170 M383.200 18.544 L 382.955 21.144 381.752 18.518 C 380.607 16.019,380.608 15.768,381.782 13.319 L 383.016 10.745 383.231 13.345 C 383.349 14.775,383.335 17.114,383.200 18.544 M388.738 14.038 C 388.299 15.371,385.442 15.563,385.442 14.260 C 385.442 13.552,386.068 13.172,387.233 13.172 C 388.356 13.172,388.917 13.495,388.738 14.038 M388.908 19.064 C 388.908 20.017,389.298 20.818,389.775 20.844 C 390.251 20.870,389.959 21.221,389.126 21.624 C 388.269 22.038,386.762 22.131,385.659 21.838 C 384.587 21.553,384.099 21.176,384.575 21.001 C 385.052 20.825,385.442 19.928,385.442 19.006 C 385.442 17.681,385.804 17.331,387.175 17.331 C 388.562 17.331,388.908 17.678,388.908 19.064 M72.947 29.911 C 68.401 30.563,62.153 32.630,60.024 34.187 C 58.843 35.051,58.893 35.373,60.991 40.413 L 63.204 45.728 65.051 44.781 C 75.837 39.248,86.303 40.813,88.784 48.329 C 89.819 51.464,89.572 51.582,84.858 50.211 C 66.405 44.847,49.984 60.824,58.060 76.283 C 63.234 86.188,78.491 89.216,87.726 82.172 L 90.121 80.345 90.121 82.460 L 90.121 84.575 96.747 84.575 L 103.373 84.575 103.160 65.338 C 102.863 38.605,99.469 32.387,83.786 29.842 C 78.869 29.044,78.996 29.044,72.947 29.911 M133.614 30.083 C 131.799 30.580,129.147 31.818,127.722 32.836 L 125.130 34.687 124.913 32.595 L 124.696 30.503 117.807 30.503 L 110.919 30.503 110.919 57.539 L 110.919 84.575 118.198 84.575 L 125.477 84.575 125.477 66.951 L 125.477 49.326 127.226 47.248 C 131.090 42.656,137.442 41.135,141.428 43.847 C 146.605 47.371,146.596 47.331,146.837 66.947 L 147.054 84.575 153.943 84.575 L 160.832 84.575 160.832 66.986 L 160.832 49.397 163.884 46.584 C 169.449 41.453,175.900 41.131,179.818 45.788 C 182.603 49.097,183.008 52.016,183.012 68.804 L 183.016 84.575 189.948 84.575 L 196.880 84.575 196.880 67.317 C 196.880 46.351,196.257 43.365,190.584 37.157 C 181.699 27.436,166.502 26.874,157.812 35.944 L 155.846 37.997 153.130 35.362 C 147.975 30.359,140.251 28.270,133.614 30.083 M253.033 29.824 C 248.872 30.552,246.225 31.630,243.504 33.705 L 241.248 35.426 241.248 32.964 L 241.248 30.503 234.662 30.503 L 228.076 30.503 228.076 57.539 L 228.076 84.575 235.009 84.575 L 241.941 84.575 241.941 66.952 L 241.941 49.328 244.812 46.871 C 252.032 40.690,261.782 41.194,265.858 47.959 C 267.127 50.065,267.263 51.712,267.462 67.418 L 267.679 84.575 274.567 84.575 L 281.456 84.575 281.456 67.317 C 281.456 40.629,277.291 32.716,261.744 29.869 C 257.239 29.044,257.489 29.046,253.033 29.824 M308.492 30.046 C 280.545 36.434,280.655 78.787,308.637 85.242 C 318.055 87.414,330.891 84.262,336.510 78.397 L 338.286 76.544 334.223 72.524 L 330.161 68.504 327.007 70.911 C 318.729 77.230,307.332 75.148,302.926 66.512 C 299.973 60.722,299.063 61.005,320.624 61.005 L 339.688 61.005 339.688 57.573 C 339.688 39.394,324.856 26.306,308.492 30.046 M205.199 57.539 L 205.199 84.575 212.132 84.575 L 219.064 84.575 219.064 57.539 L 219.064 30.503 212.132 30.503 L 205.199 30.503 205.199 57.539 M341.108 31.023 C 341.127 31.308,345.124 36.998,349.990 43.667 L 358.839 55.791 349.176 69.316 C 343.862 76.756,339.202 83.232,338.823 83.709 C 338.277 84.393,339.939 84.572,346.709 84.558 L 355.286 84.540 361.469 75.546 C 364.869 70.599,367.735 66.551,367.837 66.551 C 367.939 66.551,370.870 70.607,374.350 75.563 L 380.677 84.575 389.032 84.575 L 397.386 84.575 396.140 82.669 C 395.455 81.620,390.877 75.200,385.966 68.401 L 377.037 56.040 378.243 54.190 C 378.906 53.172,382.691 47.863,386.654 42.391 C 396.127 29.309,396.123 30.503,386.688 30.503 L 378.773 30.503 373.778 37.747 C 371.031 41.732,368.501 45.166,368.157 45.379 C 367.812 45.592,365.156 42.332,362.253 38.134 L 356.977 30.503 349.026 30.503 C 344.653 30.503,341.090 30.737,341.108 31.023 M319.638 42.478 C 322.327 44.289,325.130 48.137,325.130 50.016 C 325.130 51.214,324.363 51.300,313.692 51.300 C 300.833 51.300,300.601 51.184,303.833 46.387 C 307.343 41.178,314.927 39.303,319.638 42.478 M87.522 61.630 C 90.544 62.783,90.318 67.881,87.138 70.307 C 79.338 76.257,70.017 74.854,70.017 67.730 C 70.017 62.184,79.923 58.732,87.522 61.630 " stroke="none" fill="#000000" fill-rule="evenodd"></path></g></svg>